<svg width="45" height="45" viewBox="0 0 45 45" fill="none" xmlns="http://www.w3.org/2000/svg">
<g clip-path="url(#clip0_234_496)">
<rect width="45" height="45" rx="6" fill="#2A2D41"/>
<path d="M13.3495 8.8448C13.1767 9.392 13.0615 9.9104 12.9463 10.3712C12.3991 13.0496 11.9095 17.1968 11.9095 20.768C11.9095 25.3184 12.7447 28.544 13.6951 31.4528L10.3831 32.432C9.51909 29.84 8.68389 25.5776 8.68389 21.344C8.68389 17.5712 9.20229 13.3376 9.51909 10.4864C9.57669 9.9104 9.63429 9.248 9.60549 8.7296L13.3495 8.8448ZM8.19429 12.0128C13.6663 12.0128 18.0151 11.7536 22.4215 10.688L22.4503 14C18.5047 14.72 12.4567 15.152 8.10789 15.152C6.58149 15.152 4.33509 15.008 2.98149 14.9504L2.89509 11.6384C3.93189 11.7824 6.43749 12.0128 8.19429 12.0128ZM20.6359 16.2464C20.4055 16.7648 19.9735 18.0896 19.7719 18.6944C18.1303 23.8784 15.1639 27.7664 12.4279 29.7824C10.5559 31.1648 8.05029 32.432 5.54469 32.432C3.44229 32.432 1.68549 31.1648 1.68549 28.2272C1.68549 24.1664 5.31429 19.9328 9.89349 18.2624C11.7943 17.5712 14.1559 17.1392 16.3159 17.1392C21.7015 17.1392 25.6759 20.2496 25.6759 24.7424C25.6759 28.832 23.2567 32.7776 16.2007 33.872L14.2711 30.8192C19.8295 30.2144 22.1047 27.4208 22.1047 24.5696C22.1047 22.1216 20.0023 20.048 16.1143 20.048C13.4935 20.048 11.4199 20.7968 10.0087 21.4304C7.12869 22.784 5.08389 25.5488 5.08389 27.4784C5.08389 28.4288 5.45829 28.9184 6.40869 28.9184C7.76229 28.9184 9.69189 27.968 11.4487 26.3264C13.5511 24.3968 15.5095 21.8336 16.6615 17.8592C16.8631 17.2544 17.0647 16.016 17.0935 15.3824L20.6359 16.2464Z" fill="white"/>
<path d="M25.9351 32V11.84H29.6647V21.488L37.3255 11.84H41.7319L35.8855 19.04L43.0135 32H38.6503L33.3511 22.1792L29.6647 26.7584V32H25.9351Z" fill="#40A3FF"/>
</g>
<defs>
<clipPath id="clip0_234_496">
<rect width="45" height="45" rx="6" fill="white"/>
</clipPath>
</defs>
</svg>
