<svg width="123" height="29" viewBox="0 0 123 29" fill="none" xmlns="http://www.w3.org/2000/svg">
<path d="M13.2314 0.271999C13.0394 0.879999 12.9114 1.456 12.7834 1.968C12.1754 4.944 11.6314 9.552 11.6314 13.52C11.6314 18.576 12.5594 22.16 13.6154 25.392L9.93538 26.48C8.97538 23.6 8.04738 18.864 8.04738 14.16C8.04738 9.968 8.62338 5.264 8.97538 2.096C9.03938 1.456 9.10338 0.719999 9.07138 0.143999L13.2314 0.271999ZM7.50338 3.792C13.5834 3.792 18.4154 3.504 23.3114 2.32L23.3434 6C18.9594 6.8 12.2394 7.28 7.40738 7.28C5.71138 7.28 3.21538 7.12 1.71138 7.056L1.61538 3.376C2.76738 3.536 5.55138 3.792 7.50338 3.792ZM21.3274 8.496C21.0714 9.072 20.5914 10.544 20.3674 11.216C18.5434 16.976 15.2474 21.296 12.2074 23.536C10.1274 25.072 7.34338 26.48 4.55938 26.48C2.22338 26.48 0.271375 25.072 0.271375 21.808C0.271375 17.296 4.30338 12.592 9.39138 10.736C11.5034 9.968 14.1274 9.488 16.5274 9.488C22.5114 9.488 26.9274 12.944 26.9274 17.936C26.9274 22.48 24.2394 26.864 16.3994 28.08L14.2554 24.688C20.4314 24.016 22.9594 20.912 22.9594 17.744C22.9594 15.024 20.6234 12.72 16.3034 12.72C13.3914 12.72 11.0874 13.552 9.51938 14.256C6.31938 15.76 4.04738 18.832 4.04738 20.976C4.04738 22.032 4.46338 22.576 5.51938 22.576C7.02338 22.576 9.16738 21.52 11.1194 19.696C13.4554 17.552 15.6314 14.704 16.9114 10.288C17.1354 9.616 17.3594 8.24 17.3914 7.536L21.3274 8.496Z" fill="white"/>
<path d="M32.0154 26V3.6H36.1594V14.32L44.6714 3.6H49.5674L43.0714 11.6L50.9914 26H46.1434L40.2554 15.088L36.1594 20.176V26H32.0154ZM87.7569 26.384L82.0289 13.904C81.9542 13.744 81.8742 13.5573 81.7889 13.344C81.7035 13.1307 81.6289 12.9173 81.5649 12.704C81.5755 12.8747 81.5809 13.0773 81.5809 13.312C81.5915 13.5467 81.5969 13.7547 81.5969 13.936V26H77.4529V3.6H81.5969L87.2769 16.304C87.3835 16.5387 87.4795 16.7733 87.5649 17.008C87.6609 17.232 87.7515 17.4667 87.8369 17.712C87.9222 17.4667 88.0075 17.2267 88.0929 16.992C88.1782 16.7573 88.2689 16.528 88.3649 16.304L94.1569 3.6H98.0449V26H93.9009V13.904C93.9009 13.712 93.9009 13.4987 93.9009 13.264C93.9115 13.0293 93.9169 12.8373 93.9169 12.688C93.8529 12.88 93.7729 13.088 93.6769 13.312C93.5915 13.5253 93.5062 13.7227 93.4209 13.904L87.7569 26.384Z" fill="#40A3FF"/>
<path d="M63.4076 26.384C61.5303 26.384 59.925 26.0373 58.5916 25.344C57.269 24.64 56.2556 23.6213 55.5516 22.288C54.8583 20.9547 54.5116 19.344 54.5116 17.456V3.6H58.6556V17.456C58.6556 19.152 59.0343 20.4 59.7916 21.2C60.549 22 61.7543 22.4 63.4076 22.4C64.453 22.4 65.3276 22.2347 66.0316 21.904C66.7356 21.5733 67.2636 21.0453 67.6156 20.32C67.9676 19.584 68.1436 18.6293 68.1436 17.456V3.6H72.3036V17.456C72.3036 19.0347 72.069 20.3893 71.5996 21.52C71.141 22.6507 70.501 23.5787 69.6796 24.304C68.869 25.0187 67.925 25.5467 66.8476 25.888C65.7703 26.2187 64.6236 26.384 63.4076 26.384ZM101.663 26L110.191 3.6H114.127L122.687 26H118.223L116.447 21.264H107.887L106.143 26H101.663ZM109.231 17.472H115.071L112.831 11.472C112.756 11.2907 112.676 11.088 112.591 10.864C112.506 10.64 112.426 10.416 112.351 10.192C112.276 9.95733 112.212 9.75467 112.159 9.584C112.106 9.75467 112.042 9.95733 111.967 10.192C111.892 10.416 111.812 10.64 111.727 10.864C111.642 11.088 111.562 11.2907 111.487 11.472L109.231 17.472Z" fill="#F5F5F5"/>
</svg>
